<?xml version="1.0" standalone="no"?>
<!DOCTYPE svg PUBLIC "-//W3C//DTD SVG 20010904//EN"
 "http://www.w3.org/TR/2001/REC-SVG-20010904/DTD/svg10.dtd">
<svg version="1.0" xmlns="http://www.w3.org/2000/svg"
 width="900.000000pt" height="900.000000pt" viewBox="0 0 900.000000 900.000000"
 preserveAspectRatio="xMidYMid meet">

<g transform="translate(0.000000,900.000000) scale(0.100000,-0.100000)"
fill="#000000" stroke="none">
<path d="M4171 8144 c-744 -74 -1430 -364 -2006 -849 -132 -111 -370 -354
-476 -485 -138 -171 -288 -397 -391 -590 l-35 -65 45 -35 c24 -19 61 -48 82
-65 21 -16 142 -111 270 -210 128 -99 268 -207 310 -240 43 -33 124 -96 181
-139 57 -44 110 -86 119 -93 8 -7 53 -42 99 -78 l85 -65 28 77 c45 124 141
310 227 439 232 349 524 605 896 785 222 107 431 169 678 199 94 11 375 14
460 5 438 -51 793 -199 1109 -465 l93 -79 510 510 510 510 -65 60 c-88 81
-242 201 -375 291 -413 282 -901 473 -1415 554 -282 44 -663 56 -939 28z"/>
<path d="M4532 4483 l3 -708 993 -3 c936 -2 992 -3 992 -20 0 -31 -38 -176
-70 -267 -112 -315 -318 -594 -597 -805 l-61 -46 576 -448 577 -448 135 139
c553 568 875 1338 941 2252 11 155 7 569 -6 681 -26 213 -38 301 -43 335 l-7
40 -1718 3 -1717 2 2 -707z"/>
</g>
</svg>
